PathFileType	4	(X/Y/Z)	s01c0402.trc
DataRate	CameraRate	NumFrames	NumMarkers	Units	OrigDataRate	OrigDataStartFrame	OrigNumFrames
200	200	6	48	mm	200	500	2000
Frame#	Time	racr			lacr			c7			jug			rlel			rdr			llel			ldr			s2			lic			ric			lasi			rasi			rpsi			lpsi			rgt			lgt			rth1			rth2			rth3			rth4			rlfc			rsh1			rsh2			rsh3			rsh4			rlmal			rmmal			rcal			rtoe			rmt5			lth1			lth2			lth4			lth3			llfc			lsh1			lsh2			lsh3			lsh4			llmal			lmmal			lcal			ltoe			lmt5			SBIKE			LBIKE			RBIKE			
		X1	Y1	Z1	X2	Y2	Z2	X3	Y3	Z3	X4	Y4	Z4	X5	Y5	Z5	X6	Y6	Z6	X7	Y7	Z7	X8	Y8	Z8	X9	Y9	Z9	X10	Y10	Z10	X11	Y11	Z11	X12	Y12	Z12	X13	Y13	Z13	X14	Y14	Z14	X15	Y15	Z15	X16	Y16	Z16	X17	Y17	Z17	X18	Y18	Z18	X19	Y19	Z19	X20	Y20	Z20	X21	Y21	Z21	X22	Y22	Z22	X23	Y23	Z23	X24	Y24	Z24	X25	Y25	Z25	X26	Y26	Z26	X27	Y27	Z27	X28	Y28	Z28	X29	Y29	Z29	X30	Y30	Z30	X31	Y31	Z31	X32	Y32	Z32	X33	Y33	Z33	X34	Y34	Z34	X35	Y35	Z35	X36	Y36	Z36	X37	Y37	Z37	X38	Y38	Z38	X39	Y39	Z39	X40	Y40	Z40	X41	Y41	Z41	X42	Y42	Z42	X43	Y43	Z43	X44	Y44	Z44	X45	Y45	Z45	X46	Y46	Z46	X47	Y47	Z47	X48	Y48	Z48	
500	2.5000	657.948364	1290.609253	2.018518	715.952026	1301.865479	-379.751007	674.955505	1408.937744	-183.267487	692.395752	1242.340454	-185.624939	508.784760	1032.261963	55.760899	686.306335	896.833374	-47.939163	574.183899	1083.930420	-533.483398	706.527466	895.836487	-452.357361	165.032410	1194.270752	-219.038818	330.650848	1199.562134	-401.328796	323.630890	1177.227051	-68.884560	322.071381	1141.731934	-381.423096	353.218811	1134.006104	-105.053116	200.376572	1228.729980	-171.047119	192.573898	1235.047241	-276.336487	275.427521	1065.368408	-47.309464	260.374054	1065.891968	-426.877808	337.299438	947.977356	-39.490360	381.094574	877.921143	-48.993736	423.264191	799.762756	-65.518692	428.720184	905.347107	-63.254391	453.953308	691.489075	-93.258514	400.471863	584.831909	-58.994678	371.787872	505.069427	-64.706512	333.219391	425.662689	-75.625206	413.198700	490.549377	-105.865044	266.820526	317.239380	-94.506752	322.355408	334.325195	-169.744278	215.374924	299.048737	-147.930954	473.848755	215.219528	-129.985260	364.632599	210.198715	-62.447910	332.224579	968.543457	-443.276703	404.374786	922.883972	-450.163849	437.009186	962.355469	-439.669617	471.447296	864.511963	-444.699371	516.332642	759.534302	-436.063385	409.281250	730.902527	-460.578949	335.993225	686.816650	-450.271637	261.393158	646.226746	-433.553711	367.512299	640.848267	-423.038116	156.569061	588.616455	-413.584412	182.014542	568.981812	-333.605103	105.587166	609.561829	-367.867065	216.849686	354.214294	-372.225342	150.282883	437.527039	-438.736938	-223.262054	893.407837	-250.599808	-12.379475	85.032486	-455.868225	-21.505140	80.829971	-55.749065	
501	2.5050	658.539795	1292.284668	0.257963	714.707703	1303.734863	-382.219879	674.208130	1410.584961	-185.310791	692.877808	1244.326172	-187.724243	509.818085	1033.148438	55.303520	686.789429	896.601379	-48.061211	574.195618	1083.793457	-533.953247	706.809570	895.998413	-452.783997	165.258499	1191.964600	-218.782715	330.174713	1198.907104	-401.539337	324.694519	1175.696899	-69.068680	322.470184	1141.235352	-381.477753	354.221954	1132.633667	-105.297195	200.789230	1226.393555	-170.865677	192.514206	1233.098511	-275.881653	275.478760	1063.037109	-48.184288	261.662598	1064.601318	-427.266998	337.023956	945.510803	-39.652195	379.994415	874.905457	-49.091507	421.195679	796.323242	-65.776398	427.993896	901.854309	-63.131184	451.319031	687.608093	-93.214256	397.906281	581.034790	-58.843647	369.258087	501.072052	-64.606873	330.671143	421.748322	-75.545288	410.730896	486.602142	-105.810547	264.250427	313.632385	-94.505791	320.136230	330.916046	-169.428864	212.656494	296.101593	-147.869934	470.282959	209.609360	-130.293930	361.243713	205.995590	-62.504005	334.677734	968.461853	-443.528839	407.328217	924.092834	-450.702972	439.609314	963.932068	-440.115692	475.444641	866.552734	-445.206207	521.125793	762.169434	-436.618927	413.960388	734.345642	-460.881317	340.420807	690.592407	-450.297119	265.329376	650.556274	-433.422821	371.624298	644.596924	-423.237732	160.620209	593.082520	-413.457642	186.009644	573.553833	-333.246582	109.552139	614.119690	-367.742615	220.918167	358.774567	-372.226471	154.297668	442.063385	-438.675629	-223.269119	893.400574	-250.593658	-12.382544	85.036797	-455.867310	-21.499630	80.816490	-55.739849	
502	2.5100	659.199463	1294.158691	-1.505194	713.488831	1305.634644	-384.710846	673.522949	1412.225098	-187.505493	693.290955	1246.310425	-189.846603	510.968109	1034.272461	54.779026	687.335510	896.460022	-48.143021	574.150085	1083.672607	-534.369141	707.035400	896.210754	-453.211304	165.568436	1189.840088	-218.567245	329.708160	1198.346802	-401.748627	325.635956	1174.429688	-69.299110	322.852844	1140.854614	-381.561890	355.254700	1131.301636	-105.461357	201.284668	1224.251587	-170.709518	192.493195	1231.336914	-275.427399	276.170471	1060.865112	-48.576908	262.838196	1063.671265	-427.682465	336.580780	943.195862	-39.886536	378.741425	872.150757	-49.473194	419.221130	793.119568	-65.782387	426.814606	898.403259	-62.053513	448.495758	684.084778	-93.254494	395.200928	577.368835	-58.757992	366.566803	497.537323	-64.562134	328.080322	418.179382	-75.367393	408.107056	483.122559	-105.707321	261.631165	310.278778	-94.609764	317.720276	327.616119	-169.129333	209.924667	293.501740	-147.696777	466.550262	203.885773	-130.524414	357.465729	201.454834	-62.670464	337.121216	968.569153	-444.056366	410.197845	925.437805	-451.208984	442.042175	965.382996	-440.595001	479.322479	868.625793	-445.599304	525.841614	764.906311	-437.017731	418.474365	737.792175	-460.875641	344.678162	694.411743	-450.309326	269.544159	654.678040	-433.269012	375.790283	648.200928	-423.293823	164.615189	597.466919	-413.313782	190.065704	577.915405	-333.023956	113.425186	618.516785	-367.559753	225.375839	363.437317	-372.087250	158.558350	446.668610	-438.471283	-223.274353	893.390747	-250.584991	-12.389602	85.014015	-455.867401	-21.475222	80.810219	-55.746616	
503	2.5150	659.934875	1295.984497	-3.479623	712.297485	1307.461670	-387.316925	672.942383	1413.960205	-189.795715	693.729370	1248.307007	-192.014191	512.295227	1035.598389	54.276573	687.892151	896.336426	-48.202854	573.680847	1083.852783	-535.395996	707.215515	896.448181	-453.644653	166.100571	1187.868286	-218.264465	329.240448	1197.908447	-402.005371	326.617065	1173.235718	-69.554085	323.238129	1140.619873	-381.607483	356.313232	1130.195312	-105.592041	201.822601	1222.367554	-170.579712	192.525833	1229.795288	-275.035889	276.925201	1058.967163	-49.039379	264.081696	1062.904175	-428.118622	336.112122	941.147949	-40.149212	377.539612	869.755737	-49.435760	417.116730	790.168640	-65.793365	425.857758	895.464539	-62.638126	445.596069	680.665955	-93.345863	392.571503	573.832520	-58.759819	363.801331	494.009735	-64.408127	325.332397	414.642365	-75.338570	404.808716	479.698792	-106.301079	258.858337	306.999390	-94.838181	315.118317	324.431427	-168.843384	207.056000	290.933075	-147.616898	462.684418	198.390869	-130.894073	353.664886	197.407486	-62.774967	339.297272	968.750305	-444.771912	412.977600	926.927979	-451.682129	444.262939	967.136292	-441.193970	482.889221	870.848511	-446.113403	530.444275	767.870850	-437.362671	422.850830	741.335510	-460.826447	348.909943	698.278381	-450.102386	273.638885	658.801819	-433.001617	379.788574	651.874207	-423.362762	168.552292	601.762329	-413.150177	193.938492	582.371887	-332.367615	117.142944	622.707581	-367.429413	229.934265	368.009216	-371.906982	162.829071	451.033600	-438.277527	-223.287476	893.381958	-250.575180	-12.370536	85.016464	-455.861877	-21.480118	80.805740	-55.752556	
504	2.5200	660.686157	1298.119385	-5.350106	711.149170	1309.266113	-390.036652	672.422424	1415.710938	-192.153503	694.123169	1250.245239	-194.301559	513.776001	1037.164062	53.800732	688.407715	896.282471	-48.211395	573.221497	1083.988525	-536.304993	707.350830	896.695251	-454.079437	166.557938	1186.419800	-218.111542	328.782135	1197.572388	-402.294342	327.636963	1172.386475	-69.868690	323.613922	1140.515259	-381.681152	357.339661	1129.273926	-105.878235	202.407486	1220.763428	-170.475159	192.571808	1228.489136	-274.698883	277.561188	1057.379639	-49.459095	265.307617	1062.288696	-428.368134	335.589569	939.428955	-40.449936	376.098633	867.420959	-49.889168	414.892303	787.500183	-65.754395	424.892548	892.843201	-62.765068	442.478699	677.494080	-93.451080	389.591949	570.589355	-58.718948	360.924316	490.670868	-64.383530	322.539032	411.330444	-75.235519	401.891113	476.540253	-106.340828	256.003601	303.995361	-94.942459	312.341095	321.367981	-168.568771	204.179108	288.548523	-147.625000	458.645721	192.985962	-131.199020	349.656708	193.233627	-63.402824	341.278137	969.053467	-445.090118	415.661682	928.571594	-452.123138	446.377899	968.868347	-441.813110	486.281158	873.115479	-446.567474	534.829529	771.005005	-437.630707	427.073151	745.002808	-460.666504	352.992004	702.261780	-449.910095	277.364716	662.888367	-432.951904	383.827606	655.626038	-423.265900	172.433578	605.955872	-412.973236	197.698715	586.757324	-332.185822	120.867294	626.757019	-367.169403	234.649185	372.605957	-371.840118	167.182846	455.401215	-438.128601	-223.307480	893.369629	-250.558273	-12.376372	85.024307	-455.851990	-21.487679	80.818275	-55.747131	
505	2.5250	661.505615	1300.333984	-7.285080	710.015625	1310.964844	-392.806000	672.023621	1417.453491	-194.601059	694.511902	1252.177979	-196.630280	515.289795	1038.901978	53.373928	688.859375	896.348999	-48.155018	572.612488	1084.145508	-537.361267	707.443298	896.929077	-454.495605	167.102936	1185.094727	-217.920334	328.388123	1197.492065	-402.533813	328.675354	1171.636475	-70.175468	324.052551	1140.605591	-381.869476	358.373199	1128.540894	-106.137825	202.995850	1219.444336	-170.375839	192.662918	1227.533569	-274.416565	278.118408	1056.238892	-49.969311	266.455811	1062.036011	-428.760620	334.905243	937.934143	-40.815823	374.626434	865.442261	-50.163563	412.571716	785.094238	-65.754936	423.783142	890.282837	-63.063736	439.220215	674.591980	-93.550339	386.401917	567.574280	-58.682144	357.890259	487.662750	-64.378632	319.657593	408.307098	-75.034203	398.709381	473.481934	-106.446053	253.047241	301.010620	-95.119751	309.399323	318.431732	-168.303177	201.164795	286.444611	-147.722565	454.449921	187.621384	-131.560455	345.661804	189.465500	-63.502308	343.146851	969.463440	-445.244202	418.244598	930.375732	-452.533051	448.277679	970.693359	-442.346405	489.476685	875.418396	-446.970978	539.112793	774.324768	-437.857025	431.106476	748.863647	-460.456085	356.877075	706.244019	-449.738159	281.488403	667.265869	-432.860229	387.730957	659.445251	-423.221313	176.257202	610.040039	-412.784637	201.248199	591.573303	-330.899536	124.402550	630.540955	-366.939697	239.749969	377.261719	-371.768524	171.799179	459.643738	-437.895050	-223.332779	893.353943	-250.549850	-12.359314	85.007233	-455.854401	-21.473398	80.795364	-55.739185	
